<svg xmlns="http://www.w3.org/2000/svg" version="1.0" width="300.000000pt" height="159.000000pt" viewBox="0 0 300.000000 159.000000" preserveAspectRatio="xMidYMid meet" transform="matrix(1, 0, 0, 1, 0, 0)">
<metadata fill="#f6c76f">
Created by potrace 1.10, written by Peter Selinger 2001-2011
</metadata>
<g transform="translate(0.000000,159.000000) scale(0.100000,-0.100000)" fill="#f6c76f" stroke="none">
<path d="M1555 1302 c-157 -267 -303 -552 -394 -769 -66 -158 -121 -318 -121 -354 0 -36 28 -55 103 -71 70 -15 77 -10 112 90 15 42 45 123 67 178 l40 101 51 7 c29 3 72 6 96 6 37 0 42 -2 36 -17 -10 -26 -45 -272 -45 -315 0 -37 1 -38 35 -38 31 0 35 3 35 28 0 15 3 51 7 81 8 65 -11 64 -21 -1 -4 -24 -11 -50 -16 -58 -15 -24 -12 29 10 175 19 129 19 130 0 150 -17 16 -32 19 -96 17 -111 -3 -109 0 -194 -227 l-56 -150 -46 2 c-63 2 -88 17 -88 54 0 85 196 539 367 849 82 149 100 180 130 227 18 28 38 55 44 59 14 8 61 -26 76 -57 7 -13 25 -31 40 -40 l28 -16 1 -304 c1 -199 -3 -340 -12 -409 -7 -58 -18 -163 -24 -235 -6 -71 -15 -132 -21 -135 -5 -4 -27 -4 -47 -1 l-37 7 -1 59 c0 33 -2 65 -4 70 -4 13 -18 -80 -19 -125 l-1 -36 73 1 72 0 3 55 c1 30 12 145 24 255 17 159 22 263 22 504 l1 303 -23 18 c-14 11 -31 16 -45 12 -20 -5 -21 -4 -8 12 8 9 10 20 5 24 -5 4 -25 21 -44 38 -60 54 -70 52 -115 -24z" fill="#f6c76f"/>
<path d="M2126 1330 c-33 -10 -66 -25 -73 -33 -9 -8 -28 -97 -49 -218 -18 -112 -52 -292 -74 -399 -49 -244 -79 -419 -82 -490 l-3 -55 33 -3 c28 -3 32 0 33 20 0 13 4 49 8 81 7 56 -3 68 -13 14 -16 -92 -35 -88 -24 5 11 97 56 365 68 403 13 43 93 473 105 564 7 62 18 70 126 96 25 6 29 1 87 -117 38 -77 79 -143 110 -177 l48 -55 45 46 c24 25 84 89 133 143 50 53 100 104 113 112 28 19 139 19 161 1 16 -14 12 -90 -13 -227 -75 -408 -125 -748 -125 -850 0 -52 -19 -71 -62 -62 l-33 7 -5 74 c-5 80 -11 70 -26 -45 l-6 -50 54 -10 c95 -18 95 -17 103 88 10 141 33 312 71 532 19 110 46 276 61 368 26 166 26 168 7 187 -25 25 -123 41 -167 26 -28 -9 -208 -189 -290 -290 l-23 -28 -39 58 c-22 33 -67 113 -101 179 -44 86 -66 121 -80 122 -10 1 -46 -7 -78 -17z" fill="#f6c76f"/>
<path d="M525 1156 c-104 -33 -188 -105 -231 -199 -25 -54 -29 -74 -29 -152 0 -80 3 -97 31 -155 55 -116 162 -195 278 -207 l56 -6 0 37 c0 33 -2 36 -28 36 -100 0 -223 98 -256 204 -55 174 60 358 239 383 43 5 45 7 45 39 0 32 -2 34 -32 33 -18 0 -51 -6 -73 -13z m30 -36 c-3 -5 -13 -10 -21 -10 -49 0 -156 -86 -190 -152 -35 -67 -50 -177 -31 -228 3 -8 11 -32 17 -52 17 -56 92 -133 163 -168 34 -16 54 -30 44 -30 -30 0 -111 46 -150 87 -113 115 -130 309 -38 429 20 26 52 60 72 76 49 39 151 76 134 48z" fill="#f6c76f"/>
<path d="M540 1005 c-80 -36 -130 -112 -130 -198 0 -103 58 -184 152 -212 28 -8 56 -15 61 -15 6 0 8 47 5 116 l-4 117 113 -5 114 -5 -6 31 c-12 57 -49 118 -93 149 -36 27 -54 32 -110 34 -45 2 -79 -2 -102 -12z m175 -31 c43 -20 95 -86 95 -121 0 -22 -2 -23 -87 -23 -117 0 -123 -6 -123 -122 0 -86 -1 -88 -23 -88 -35 0 -101 52 -122 95 -29 62 -29 112 0 170 50 103 155 139 260 89z" fill="#f6c76f"/>
<path d="M2216 908 c52 -102 149 -213 164 -188 4 7 20 -2 45 -27 l37 -37 22 29 c53 72 156 230 156 239 -1 15 -72 -66 -106 -121 -10 -15 -31 -45 -47 -65 l-28 -38 -37 25 c-20 14 -42 25 -48 25 -15 0 -62 53 -114 130 -43 64 -72 82 -44 28z" fill="#f6c76f"/>
<path d="M2167 920 c-24 -51 -107 -612 -107 -722 0 -66 -16 -83 -66 -69 -28 7 -29 9 -30 75 -2 111 -10 98 -30 -44 l-6 -45 54 -10 c82 -15 98 -10 98 31 0 76 32 340 66 537 32 189 40 289 21 247z" fill="#f6c76f"/>
<path d="M2656 893 c-29 -94 -124 -615 -128 -703 -3 -55 -3 -55 28 -58 31 -3 31 -3 38 55 4 31 9 67 12 80 4 13 2 23 -5 23 -5 0 -16 -27 -23 -60 -6 -33 -15 -57 -20 -52 -14 14 25 254 102 612 11 52 20 101 20 108 0 18 -18 15 -24 -5z" fill="#f6c76f"/>
<path d="M1538 863 c-30 -34 -80 -132 -76 -150 4 -19 12 -8 77 110 31 55 31 76 -1 40z" fill="#f6c76f"/>
<path d="M1580 791 c0 -86 -4 -91 -72 -91 -16 0 -28 -4 -28 -10 0 -18 85 -12 103 8 21 23 27 172 7 172 -6 0 -10 -33 -10 -79z" fill="#f6c76f"/>
<path d="M115 744 c15 -126 69 -228 165 -318 87 -80 215 -136 313 -136 35 0 37 2 37 33 l0 33 -70 11 c-96 15 -173 55 -246 127 -69 70 -107 142 -125 239 l-12 67 -35 0 -34 0 7 -56z m49 -26 c10 -62 44 -141 88 -200 62 -83 160 -142 308 -187 33 -10 33 -10 -14 -6 -102 10 -273 117 -318 199 -52 93 -70 138 -75 186 -6 60 2 67 11 8z" fill="#f6c76f"/>
</g>
</svg>